<svg width="119" height="27" viewBox="0 0 119 27" fill="none" xmlns="http://www.w3.org/2000/svg">
<path d="M37.2 6.92L35.12 5.16V4.68L40.88 1.48H41.36V21.8C41.36 22.2907 41.424 22.664 41.552 22.92C41.7013 23.176 41.9573 23.3893 42.32 23.56L43.6 24.2L43.44 25H35.12L34.96 24.2L36.24 23.56C36.6027 23.3893 36.848 23.176 36.976 22.92C37.1253 22.664 37.2 22.2907 37.2 21.8V6.92ZM52.7338 24.2C53.3738 24.2 53.8858 24.04 54.2698 23.72C54.6751 23.4 54.9844 23.0053 55.1978 22.536C55.4324 22.0453 55.5818 21.5227 55.6458 20.968C55.7311 20.392 55.7738 19.8693 55.7738 19.4C55.7738 18.1627 55.6564 16.968 55.4218 15.816C55.2084 14.664 54.8884 13.64 54.4618 12.744C54.0564 11.848 53.5658 11.1333 52.9898 10.6C52.4351 10.0667 51.8164 9.8 51.1338 9.8C50.4938 9.8 49.9711 9.96 49.5658 10.28C49.1818 10.6 48.8724 11.0053 48.6378 11.496C48.4244 11.9653 48.2751 12.4773 48.1898 13.032C48.1258 13.5867 48.0938 14.1093 48.0938 14.6C48.0938 15.8373 48.2004 17.032 48.4138 18.184C48.6484 19.336 48.9684 20.36 49.3738 21.256C49.8004 22.152 50.2911 22.8667 50.8458 23.4C51.4218 23.9333 52.0511 24.2 52.7338 24.2ZM51.1338 25.32C50.0244 25.32 49.0111 25.096 48.0938 24.648C47.1978 24.2 46.4298 23.6133 45.7898 22.888C45.1498 22.1413 44.6484 21.288 44.2858 20.328C43.9444 19.368 43.7738 18.3653 43.7738 17.32C43.7738 16.2747 43.9551 15.24 44.3178 14.216C44.7018 13.192 45.2671 12.2747 46.0138 11.464C46.7818 10.632 47.7204 9.96 48.8298 9.448C49.9604 8.936 51.2618 8.68 52.7338 8.68C53.8644 8.68 54.8778 8.904 55.7738 9.352C56.6911 9.8 57.4698 10.3973 58.1098 11.144C58.7498 11.8693 59.2404 12.712 59.5818 13.672C59.9231 14.632 60.0938 15.6347 60.0938 16.68C60.0938 17.7253 59.9018 18.76 59.5178 19.784C59.1551 20.808 58.5898 21.736 57.8218 22.568C57.0751 23.3787 56.1364 24.04 55.0058 24.552C53.8964 25.064 52.6058 25.32 51.1338 25.32ZM69.2238 11.08C68.9038 11.2507 68.6158 11.4107 68.3598 11.56C68.1251 11.688 67.8264 11.9013 67.4638 12.2L67.3038 12.328V21.8C67.3038 22.2907 67.3464 22.6747 67.4318 22.952C67.5171 23.208 67.7944 23.4107 68.2638 23.56L70.3438 24.2L70.1838 25H61.0638L60.9038 24.2L62.1838 23.56C62.5464 23.3893 62.7918 23.176 62.9198 22.92C63.0691 22.664 63.1438 22.2907 63.1438 21.8V14.12L61.0638 12.36V11.88L66.8238 8.68H67.3038V11.048L67.4638 10.92C67.8051 10.6213 68.1358 10.344 68.4558 10.088C68.7758 9.81067 69.1064 9.576 69.4478 9.384C69.8104 9.17067 70.1731 9 70.5358 8.872C70.9198 8.744 71.3358 8.68 71.7838 8.68C72.3384 8.68 72.8291 8.78667 73.2558 9C73.6824 9.192 74.0451 9.40533 74.3438 9.64L74.9838 10.12L72.7438 14.92L72.1038 14.76L69.2238 11.08ZM84.7388 14.44C84.6961 13.8853 84.6214 13.32 84.5148 12.744C84.4294 12.168 84.2801 11.656 84.0668 11.208C83.8748 10.7387 83.5974 10.3653 83.2348 10.088C82.8721 9.78933 82.4134 9.64 81.8588 9.64C81.2828 9.64 80.7814 9.75733 80.3548 9.992C79.9281 10.2267 79.5654 10.5573 79.2668 10.984C78.9894 11.4107 78.7761 11.9227 78.6267 12.52C78.4774 13.096 78.3814 13.736 78.3387 14.44H84.7388ZM82.6588 8.68C83.4268 8.68 84.1734 8.79733 84.8988 9.032C85.6454 9.24533 86.3174 9.61867 86.9148 10.152C87.5121 10.664 87.9921 11.368 88.3548 12.264C88.7174 13.1387 88.8988 14.2373 88.8988 15.56H78.3387C78.3814 16.2213 78.4774 16.9253 78.6267 17.672C78.7974 18.3973 79.0641 19.0693 79.4268 19.688C79.7894 20.3067 80.2801 20.8187 80.8988 21.224C81.5388 21.608 82.3388 21.8 83.2987 21.8C84.3441 21.8 85.2721 21.512 86.0828 20.936C86.8934 20.3387 87.6188 19.4 88.2588 18.12L88.8988 18.28C88.6854 19.1333 88.3974 19.9867 88.0348 20.84C87.6721 21.672 87.2028 22.4187 86.6268 23.08C86.0508 23.7413 85.3468 24.2853 84.5148 24.712C83.6828 25.1173 82.6908 25.32 81.5388 25.32C80.8134 25.32 80.0348 25.1813 79.2028 24.904C78.3708 24.6267 77.5921 24.1787 76.8668 23.56C76.1414 22.92 75.5334 22.088 75.0427 21.064C74.5734 20.04 74.3387 18.792 74.3387 17.32C74.3387 15.912 74.5734 14.6747 75.0427 13.608C75.5334 12.5413 76.1628 11.6453 76.9308 10.92C77.7201 10.1733 78.6054 9.61867 79.5868 9.256C80.5894 8.872 81.6134 8.68 82.6588 8.68ZM89.6875 24.2L90.9675 23.56C91.3302 23.3893 91.5755 23.176 91.7035 22.92C91.8528 22.664 91.9275 22.2907 91.9275 21.8V14.12L89.8475 12.36V11.88L95.6075 8.68H96.0875V11.272L96.8875 10.6C97.5702 10.024 98.2422 9.56533 98.9035 9.224C99.5862 8.86133 100.408 8.68 101.368 8.68C102.69 8.68 103.682 8.94667 104.344 9.48C105.005 10.0133 105.453 10.7067 105.688 11.56L106.808 10.6C107.49 10.024 108.162 9.56533 108.824 9.224C109.506 8.86133 110.328 8.68 111.288 8.68C112.29 8.68 113.09 8.84 113.688 9.16C114.306 9.48 114.776 9.90667 115.096 10.44C115.437 10.952 115.661 11.56 115.768 12.264C115.874 12.9467 115.928 13.672 115.928 14.44V21.8C115.928 22.2907 115.992 22.664 116.12 22.92C116.269 23.176 116.525 23.3893 116.888 23.56L118.168 24.2L118.008 25H109.848L109.688 24.2L110.808 23.56C111.17 23.368 111.416 23.1547 111.544 22.92C111.693 22.664 111.768 22.2907 111.768 21.8V15.56C111.768 14.5573 111.725 13.736 111.64 13.096C111.554 12.456 111.416 11.9547 111.224 11.592C111.032 11.208 110.786 10.952 110.488 10.824C110.189 10.6747 109.816 10.6 109.368 10.6C108.877 10.6 108.45 10.7067 108.088 10.92C107.725 11.1333 107.298 11.4533 106.808 11.88L105.912 12.648C105.976 13.224 106.008 13.8213 106.008 14.44V21.8C106.008 22.2907 106.072 22.664 106.2 22.92C106.349 23.1547 106.605 23.368 106.968 23.56L108.088 24.2L107.928 25H99.9275L99.7675 24.2L100.888 23.56C101.25 23.368 101.496 23.1547 101.624 22.92C101.773 22.664 101.848 22.2907 101.848 21.8V15.56C101.848 14.5573 101.805 13.736 101.72 13.096C101.634 12.456 101.496 11.9547 101.304 11.592C101.112 11.208 100.866 10.952 100.568 10.824C100.269 10.6747 99.8955 10.6 99.4475 10.6C98.9568 10.6 98.5302 10.7067 98.1675 10.92C97.8048 11.1333 97.3782 11.4533 96.8875 11.88L96.0875 12.552V21.8C96.0875 22.2907 96.1515 22.664 96.2795 22.92C96.4288 23.1547 96.6848 23.368 97.0475 23.56L98.1675 24.2L98.0075 25H89.8475L89.6875 24.2Z" fill="black"/>
<path d="M15.8741 1.89465C15.2977 1.91979 14.7187 1.95366 14.122 2.0697C13.7471 2.14272 13.3643 2.24641 12.9846 2.35559L13.0141 7.55488C12.8016 7.61663 12.5916 7.68647 12.3845 7.76425C13.0819 7.81853 13.7618 8.0095 14.3855 8.3263C14.5551 8.30811 14.7254 8.29791 14.8959 8.29573C15.5485 8.28862 16.1532 8.40918 16.673 8.66222C17.7819 9.20202 18.3525 10.2165 18.4079 11.5471C18.4632 12.8778 17.9543 14.5039 16.8225 16.0538C15.6906 17.6038 14.1628 18.7688 12.6394 19.3875C11.1161 20.0061 9.62123 20.0695 8.51227 19.5297C7.40331 18.9899 6.83294 17.9753 6.77748 16.6447C6.75697 16.1526 6.81395 15.6201 6.95075 15.066C6.70976 14.4468 6.58638 13.7881 6.58695 13.1237C6.58695 13.1119 6.58736 13.1002 6.58746 13.0884C6.31563 13.6424 6.10895 14.1986 5.96844 14.7469L1.21176 14.5843C1.05789 15.1891 0.937641 15.7824 0.870102 16.3804C0.826531 16.767 0.796621 17.1685 0.790527 17.5485L5.76293 15.9829C5.74532 16.2174 5.74118 16.4526 5.75054 16.6875C5.77329 17.2333 5.878 17.758 6.06198 18.241L1.20983 20.625C1.33455 21.033 1.48846 21.4448 1.67148 21.8281C1.86216 22.2277 2.07174 22.5907 2.3132 22.9373L6.56781 19.191C6.91982 19.6852 7.383 20.0995 7.95439 20.3987L4.29459 24.8911C4.99252 25.3569 5.77994 25.6757 6.61564 25.9079L8.92386 20.7684C9.6321 20.95 10.393 20.9711 11.1684 20.8567L9.66648 26.2562C10.6092 26.2161 11.595 26.0601 12.5841 25.7757L12.2668 20.6085C12.5207 20.5316 12.7743 20.4419 13.0262 20.3397C13.5479 20.1279 14.0647 19.8621 14.5665 19.5472L15.8529 24.3823C16.3316 24.1124 16.7929 23.8211 17.2639 23.4922C17.7268 23.1682 18.1748 22.8234 18.6065 22.4589L15.5295 18.8673C16.2295 18.3132 16.8617 17.6785 17.413 16.9762L21.2664 19.7109C21.9614 18.821 22.5424 17.8768 23.041 16.9138L18.0869 16.0195C18.579 15.2351 18.938 14.4341 19.1623 13.6469L24.3289 13.5668C24.4858 12.9546 24.619 12.3323 24.6873 11.727C24.7308 11.3405 24.7721 10.9627 24.7782 10.5828L19.3906 12.5328C19.4336 12.1831 19.4488 11.8393 19.4349 11.5044C19.4174 11.0835 19.3508 10.6754 19.2371 10.289L24.3704 7.53005C24.2449 7.10936 24.0867 6.69912 23.8973 6.30308C23.7144 5.91968 23.4968 5.55222 23.267 5.21763L18.854 9.37372C18.4884 8.72184 17.954 8.17746 17.2563 7.80595L21.2743 3.24031C20.9992 3.05668 20.6969 2.88722 20.3984 2.7396C19.9346 2.51027 19.4262 2.36057 18.9139 2.21925L16.3325 7.44245C15.8244 7.30382 15.2885 7.24837 14.7385 7.26792C14.5294 7.27533 14.3183 7.29367 14.1059 7.32215L15.8741 1.89465ZM9.68761 3.76848C9.20374 4.04319 8.73293 4.34028 8.2767 4.65878C7.8153 4.98109 7.38666 5.31386 6.96218 5.67237L9.11185 8.56919C9.55515 8.29029 10.037 8.07796 10.5419 7.93899L9.68761 3.76848ZM4.3022 8.4205C4.03423 8.76378 3.76864 9.1129 3.52901 9.46924L3.50093 9.48889C3.12311 10.0528 2.80319 10.6497 2.49952 11.2374L6.66013 12.2405C6.74618 11.7231 6.90811 11.2212 7.14067 10.7511L4.3022 8.4205Z" fill="black"/>
</svg>
